<svg xmlns="http://www.w3.org/2000/svg" version="1.1" xmlns:xlink="http://www.w3.org/1999/xlink" xmlns:svgjs="http://svgjs.dev/svgjs" viewBox="0 0 800 800" opacity="1"><defs><linearGradient x1="50%" y1="0%" x2="50%" y2="100%" id="nnneon-grad"><stop stop-color="hsl(50, 100%, 50%)" stop-opacity="1" offset="0%"></stop><stop stop-color="hsl(0, 0%, 0%)" stop-opacity="1" offset="100%"></stop></linearGradient><filter id="nnneon-filter" x="-100%" y="-100%" width="400%" height="400%" filterUnits="objectBoundingBox" primitiveUnits="userSpaceOnUse" color-interpolation-filters="sRGB">
	<feGaussianBlur stdDeviation="77 77" x="0%" y="0%" width="100%" height="100%" in="SourceGraphic" edgeMode="none" result="blur"></feGaussianBlur></filter><filter id="nnneon-filter2" x="-100%" y="-100%" width="400%" height="400%" filterUnits="objectBoundingBox" primitiveUnits="userSpaceOnUse" color-interpolation-filters="sRGB">
	<feGaussianBlur stdDeviation="77 77" x="0%" y="0%" width="100%" height="100%" in="SourceGraphic" edgeMode="none" result="blur"></feGaussianBlur></filter></defs><g stroke-width="44" stroke="url(#nnneon-grad)" fill="none" transform="rotate(59, 400, 400)"><path d="M387.14435193133454 214.5868492170465C395.0994269562247 209.9948117269192 404.9005730437753 209.9948117269192 412.85564806866546 214.5881347818534L554.1443626025268 296.16107847195656C562.0994376274169 300.7531159620838 567.0000106711923 309.2417003818237 567.0000106711923 318.42706092688525V481.57294830709156C567.0000106711923 490.75830885215305 562.0994376274169 499.2468932718929 554.1443626025268 503.840216326827L412.85564806866546 585.4131600169302C404.9005730437753 590.0051975070575 395.0994269562247 590.0051975070575 387.14435193133454 585.4118744521234L245.85563739747323 503.83893076202025C237.90056237258307 499.2468932718929 232.99998932880777 490.75830885215305 232.99998932880777 481.57294830709156V318.42706092688525C232.99998932880777 309.2417003818237 237.90056237258307 300.7531159620838 245.85563739747323 296.1597929071497L387.14435193133454 214.5868492170465Z " filter="url(#nnneon-filter)"></path><path d="M399.14435193133454 214.5868492170465C407.0994269562247 209.9948117269192 416.9005730437753 209.9948117269192 424.85564806866546 214.5881347818534L566.1443626025268 296.16107847195656C574.0994376274169 300.7531159620838 579.0000106711923 309.2417003818237 579.0000106711923 318.42706092688525V481.57294830709156C579.0000106711923 490.75830885215305 574.0994376274169 499.2468932718929 566.1443626025268 503.840216326827L424.85564806866546 585.4131600169302C416.9005730437753 590.0051975070575 407.0994269562247 590.0051975070575 399.14435193133454 585.4118744521234L257.85563739747323 503.83893076202025C249.90056237258307 499.2468932718929 244.99998932880777 490.75830885215305 244.99998932880777 481.57294830709156V318.42706092688525C244.99998932880777 309.2417003818237 249.90056237258307 300.7531159620838 257.85563739747323 296.1597929071497L399.14435193133454 214.5868492170465Z " filter="url(#nnneon-filter2)" opacity="0.25"></path><path d="M375.14435193133454 214.5868492170465C383.0994269562247 209.9948117269192 392.9005730437753 209.9948117269192 400.85564806866546 214.5881347818534L542.1443626025268 296.16107847195656C550.0994376274169 300.7531159620838 555.0000106711923 309.2417003818237 555.0000106711923 318.42706092688525V481.57294830709156C555.0000106711923 490.75830885215305 550.0994376274169 499.2468932718929 542.1443626025268 503.840216326827L400.85564806866546 585.4131600169302C392.9005730437753 590.0051975070575 383.0994269562247 590.0051975070575 375.14435193133454 585.4118744521234L233.85563739747323 503.83893076202025C225.90056237258307 499.2468932718929 220.99998932880777 490.75830885215305 220.99998932880777 481.57294830709156V318.42706092688525C220.99998932880777 309.2417003818237 225.90056237258307 300.7531159620838 233.85563739747323 296.1597929071497L375.14435193133454 214.5868492170465Z " filter="url(#nnneon-filter2)" opacity="0.25"></path><path d="M387.14435193133454 214.5868492170465C395.0994269562247 209.9948117269192 404.9005730437753 209.9948117269192 412.85564806866546 214.5881347818534L554.1443626025268 296.16107847195656C562.0994376274169 300.7531159620838 567.0000106711923 309.2417003818237 567.0000106711923 318.42706092688525V481.57294830709156C567.0000106711923 490.75830885215305 562.0994376274169 499.2468932718929 554.1443626025268 503.840216326827L412.85564806866546 585.4131600169302C404.9005730437753 590.0051975070575 395.0994269562247 590.0051975070575 387.14435193133454 585.4118744521234L245.85563739747323 503.83893076202025C237.90056237258307 499.2468932718929 232.99998932880777 490.75830885215305 232.99998932880777 481.57294830709156V318.42706092688525C232.99998932880777 309.2417003818237 237.90056237258307 300.7531159620838 245.85563739747323 296.1597929071497L387.14435193133454 214.5868492170465Z "></path></g></svg>